<svg width="76" height="132" viewBox="0 0 76 132" xmlns="http://www.w3.org/2000/svg">
  <g fill="none">
    <path d="M38 76V131.5" stroke="white"/>
    <circle cx="38" cy="38" r="26.5" stroke="white"/>
    <circle cx="38" cy="38" r="37.5" stroke="white" stroke-dasharray="4 4"/>
    <path fill-rule="evenodd" clip-rule="evenodd" d="M37.5 50.9999C45 51 46 45.4999 46 37.9999C46 29 44 24.9999 37.5 24.9999C30.4289 24.9999 29 29 29 37.4999C29 45.9998 30 50.9998 37.5 50.9999ZM37.5 49C43.2353 49.0001 44 44.3461 44 38C44 30.3847 42.4706 27 37.5 27C32.0927 27 31 30.3847 31 37.5769C31 44.7691 31.7647 48.9999 37.5 49Z" fill="white"/>
    <ellipse cx="37.5" cy="33" rx="1.5" ry="3" fill="white"/>
  </g>
</svg>
